<mxfile host="app.diagrams.net" agent="Mozilla/5.0 (Windows NT 10.0; Win64; x64) AppleWebKit/537.36 (KHTML, like Gecko) Chrome/131.0.0.0 Safari/537.36" version="25.0.3">
  <diagram id="RH7aymlDDFChnkhVYngy" name="第 1 页">
    <mxGraphModel dx="1235" dy="655" grid="1" gridSize="10" guides="1" tooltips="1" connect="1" arrows="1" fold="1" page="1" pageScale="1" pageWidth="827" pageHeight="1169" math="0" shadow="0">
      <root>
        <mxCell id="0" />
        <mxCell id="1" parent="0" />
        <mxCell id="uECHu8tvX3lNtGS8XR_O-1" value="" style="whiteSpace=wrap;html=1;" vertex="1" parent="1">
          <mxGeometry x="410" y="330" width="1200" height="160" as="geometry" />
        </mxCell>
        <mxCell id="uECHu8tvX3lNtGS8XR_O-2" value="" style="whiteSpace=wrap;html=1;" vertex="1" parent="1">
          <mxGeometry x="410" y="170" width="1200" height="80" as="geometry" />
        </mxCell>
        <mxCell id="uECHu8tvX3lNtGS8XR_O-3" value="Ali Express" style="rounded=0;whiteSpace=wrap;html=1;" vertex="1" parent="1">
          <mxGeometry x="420" y="190" width="80" height="40" as="geometry" />
        </mxCell>
        <mxCell id="uECHu8tvX3lNtGS8XR_O-4" value="1688" style="rounded=0;whiteSpace=wrap;html=1;" vertex="1" parent="1">
          <mxGeometry x="540" y="190" width="80" height="40" as="geometry" />
        </mxCell>
        <mxCell id="uECHu8tvX3lNtGS8XR_O-5" value="掏寶" style="rounded=0;whiteSpace=wrap;html=1;" vertex="1" parent="1">
          <mxGeometry x="663.5" y="190" width="80" height="40" as="geometry" />
        </mxCell>
        <mxCell id="uECHu8tvX3lNtGS8XR_O-6" value="天貓" style="rounded=0;whiteSpace=wrap;html=1;" vertex="1" parent="1">
          <mxGeometry x="780" y="190" width="80" height="40" as="geometry" />
        </mxCell>
        <mxCell id="uECHu8tvX3lNtGS8XR_O-7" value="聚划算" style="rounded=0;whiteSpace=wrap;html=1;" vertex="1" parent="1">
          <mxGeometry x="900" y="190" width="80" height="40" as="geometry" />
        </mxCell>
        <mxCell id="uECHu8tvX3lNtGS8XR_O-8" value="去啊" style="rounded=0;whiteSpace=wrap;html=1;" vertex="1" parent="1">
          <mxGeometry x="1020" y="190" width="80" height="40" as="geometry" />
        </mxCell>
        <mxCell id="uECHu8tvX3lNtGS8XR_O-9" value="口碑" style="rounded=0;whiteSpace=wrap;html=1;" vertex="1" parent="1">
          <mxGeometry x="1140" y="190" width="80" height="40" as="geometry" />
        </mxCell>
        <mxCell id="uECHu8tvX3lNtGS8XR_O-10" value="阿里媽媽" style="rounded=0;whiteSpace=wrap;html=1;" vertex="1" parent="1">
          <mxGeometry x="1260" y="190" width="80" height="40" as="geometry" />
        </mxCell>
        <mxCell id="uECHu8tvX3lNtGS8XR_O-11" value="菜鳥" style="rounded=0;whiteSpace=wrap;html=1;" vertex="1" parent="1">
          <mxGeometry x="1380" y="190" width="80" height="40" as="geometry" />
        </mxCell>
        <mxCell id="uECHu8tvX3lNtGS8XR_O-12" value="開源用戶" style="rounded=0;whiteSpace=wrap;html=1;fillColor=#3399FF;" vertex="1" parent="1">
          <mxGeometry x="1500" y="170" width="110" height="80" as="geometry" />
        </mxCell>
        <mxCell id="uECHu8tvX3lNtGS8XR_O-13" value="" style="shape=flexArrow;endArrow=classic;html=1;rounded=0;endWidth=40;endSize=11.485714285714286;width=54.285714285714285;" edge="1" parent="1">
          <mxGeometry width="50" height="50" relative="1" as="geometry">
            <mxPoint x="880" y="310" as="sourcePoint" />
            <mxPoint x="880" y="250" as="targetPoint" />
            <Array as="points" />
          </mxGeometry>
        </mxCell>
        <mxCell id="uECHu8tvX3lNtGS8XR_O-14" value="支撐" style="edgeLabel;html=1;align=center;verticalAlign=middle;resizable=0;points=[];" vertex="1" connectable="0" parent="uECHu8tvX3lNtGS8XR_O-13">
          <mxGeometry x="0.3386" y="-1" relative="1" as="geometry">
            <mxPoint as="offset" />
          </mxGeometry>
        </mxCell>
        <mxCell id="uECHu8tvX3lNtGS8XR_O-15" value="&lt;b&gt;阿里巴巴集團業務&lt;/b&gt;" style="text;html=1;align=center;verticalAlign=middle;whiteSpace=wrap;rounded=0;" vertex="1" parent="1">
          <mxGeometry x="410" y="170" width="100" height="30" as="geometry" />
        </mxCell>
        <mxCell id="uECHu8tvX3lNtGS8XR_O-16" value="" style="whiteSpace=wrap;html=1;" vertex="1" parent="1">
          <mxGeometry x="425" y="360" width="1175" height="120" as="geometry" />
        </mxCell>
        <mxCell id="uECHu8tvX3lNtGS8XR_O-17" value="&lt;b&gt;大中台(共享業務事業部)&lt;/b&gt;" style="text;html=1;align=center;verticalAlign=middle;whiteSpace=wrap;rounded=0;" vertex="1" parent="1">
          <mxGeometry x="410" y="330" width="150" height="30" as="geometry" />
        </mxCell>
        <mxCell id="uECHu8tvX3lNtGS8XR_O-18" value="用戶中心" style="rounded=0;whiteSpace=wrap;html=1;" vertex="1" parent="1">
          <mxGeometry x="583.5" y="380" width="80" height="40" as="geometry" />
        </mxCell>
        <mxCell id="uECHu8tvX3lNtGS8XR_O-19" value="商品中心" style="rounded=0;whiteSpace=wrap;html=1;" vertex="1" parent="1">
          <mxGeometry x="830" y="380" width="80" height="40" as="geometry" />
        </mxCell>
        <mxCell id="uECHu8tvX3lNtGS8XR_O-20" value="交易中心" style="rounded=0;whiteSpace=wrap;html=1;" vertex="1" parent="1">
          <mxGeometry x="1077" y="380" width="80" height="40" as="geometry" />
        </mxCell>
        <mxCell id="uECHu8tvX3lNtGS8XR_O-21" value="評價中心" style="rounded=0;whiteSpace=wrap;html=1;" vertex="1" parent="1">
          <mxGeometry x="1320" y="380" width="80" height="40" as="geometry" />
        </mxCell>
        <mxCell id="uECHu8tvX3lNtGS8XR_O-22" value="營銷中心" style="rounded=0;whiteSpace=wrap;html=1;" vertex="1" parent="1">
          <mxGeometry x="1320" y="430" width="80" height="40" as="geometry" />
        </mxCell>
        <mxCell id="uECHu8tvX3lNtGS8XR_O-23" value="數據服務中心" style="rounded=0;whiteSpace=wrap;html=1;" vertex="1" parent="1">
          <mxGeometry x="1077" y="430" width="80" height="40" as="geometry" />
        </mxCell>
        <mxCell id="uECHu8tvX3lNtGS8XR_O-24" value="搜索中心" style="rounded=0;whiteSpace=wrap;html=1;" vertex="1" parent="1">
          <mxGeometry x="830" y="430" width="80" height="40" as="geometry" />
        </mxCell>
        <mxCell id="uECHu8tvX3lNtGS8XR_O-25" value="店鋪中心" style="rounded=0;whiteSpace=wrap;html=1;" vertex="1" parent="1">
          <mxGeometry x="583.5" y="430" width="80" height="40" as="geometry" />
        </mxCell>
        <mxCell id="uECHu8tvX3lNtGS8XR_O-26" value="&lt;b&gt;共享業務單元(8大中心)&lt;/b&gt;" style="text;html=1;align=center;verticalAlign=middle;whiteSpace=wrap;rounded=0;" vertex="1" parent="1">
          <mxGeometry x="425" y="360" width="130" height="30" as="geometry" />
        </mxCell>
        <mxCell id="uECHu8tvX3lNtGS8XR_O-27" value="" style="shape=flexArrow;endArrow=classic;html=1;rounded=0;endWidth=40;endSize=11.485714285714286;width=54.285714285714285;" edge="1" parent="1">
          <mxGeometry width="50" height="50" relative="1" as="geometry">
            <mxPoint x="869.52" y="570" as="sourcePoint" />
            <mxPoint x="869.52" y="510" as="targetPoint" />
            <Array as="points" />
          </mxGeometry>
        </mxCell>
        <mxCell id="uECHu8tvX3lNtGS8XR_O-28" value="支撐" style="edgeLabel;html=1;align=center;verticalAlign=middle;resizable=0;points=[];" vertex="1" connectable="0" parent="uECHu8tvX3lNtGS8XR_O-27">
          <mxGeometry x="0.3386" y="-1" relative="1" as="geometry">
            <mxPoint as="offset" />
          </mxGeometry>
        </mxCell>
        <mxCell id="uECHu8tvX3lNtGS8XR_O-29" value="" style="whiteSpace=wrap;html=1;" vertex="1" parent="1">
          <mxGeometry x="410" y="610" width="1200" height="230" as="geometry" />
        </mxCell>
        <mxCell id="uECHu8tvX3lNtGS8XR_O-30" value="&lt;font style=&quot;font-size: 14px;&quot;&gt;阿里雲平台&lt;/font&gt;" style="text;html=1;align=center;verticalAlign=middle;whiteSpace=wrap;rounded=0;" vertex="1" parent="1">
          <mxGeometry x="420" y="655" width="20" height="130" as="geometry" />
        </mxCell>
        <mxCell id="uECHu8tvX3lNtGS8XR_O-31" value="" style="endArrow=classic;startArrow=classic;html=1;rounded=0;exitX=0.65;exitY=0;exitDx=0;exitDy=0;exitPerimeter=0;" edge="1" parent="1">
          <mxGeometry width="50" height="50" relative="1" as="geometry">
            <mxPoint x="380" y="265" as="sourcePoint" />
            <mxPoint x="380" y="155" as="targetPoint" />
            <Array as="points">
              <mxPoint x="380" y="215" />
            </Array>
          </mxGeometry>
        </mxCell>
        <mxCell id="uECHu8tvX3lNtGS8XR_O-32" value="" style="endArrow=classic;startArrow=classic;html=1;rounded=0;exitX=0.65;exitY=0;exitDx=0;exitDy=0;exitPerimeter=0;" edge="1" parent="1">
          <mxGeometry width="50" height="50" relative="1" as="geometry">
            <mxPoint x="380" y="490" as="sourcePoint" />
            <mxPoint x="380" y="330" as="targetPoint" />
            <Array as="points" />
          </mxGeometry>
        </mxCell>
        <mxCell id="uECHu8tvX3lNtGS8XR_O-33" value="" style="endArrow=classic;startArrow=classic;html=1;rounded=0;exitX=0.5;exitY=0;exitDx=0;exitDy=0;" edge="1" parent="1">
          <mxGeometry width="50" height="50" relative="1" as="geometry">
            <mxPoint x="380" y="831" as="sourcePoint" />
            <mxPoint x="380" y="599" as="targetPoint" />
            <Array as="points" />
          </mxGeometry>
        </mxCell>
        <mxCell id="uECHu8tvX3lNtGS8XR_O-35" value="" style="rounded=0;whiteSpace=wrap;html=1;" vertex="1" parent="1">
          <mxGeometry x="460" y="640" width="50" height="160" as="geometry" />
        </mxCell>
        <mxCell id="uECHu8tvX3lNtGS8XR_O-36" value="分布式應用服務平台&lt;span style=&quot;white-space: pre;&quot;&gt;&#x9;&lt;/span&gt;EDAS" style="rounded=0;whiteSpace=wrap;html=1;" vertex="1" parent="1">
          <mxGeometry x="530" y="640" width="900" height="50" as="geometry" />
        </mxCell>
        <mxCell id="uECHu8tvX3lNtGS8XR_O-37" value="" style="rounded=0;whiteSpace=wrap;html=1;" vertex="1" parent="1">
          <mxGeometry x="1450" y="640" width="50" height="170" as="geometry" />
        </mxCell>
        <mxCell id="uECHu8tvX3lNtGS8XR_O-38" value="彈性計算服務ECS" style="rounded=0;whiteSpace=wrap;html=1;" vertex="1" parent="1">
          <mxGeometry x="530" y="700" width="110" height="30" as="geometry" />
        </mxCell>
        <mxCell id="uECHu8tvX3lNtGS8XR_O-39" value="關係型數據庫服務&lt;div&gt;RDS/DRDS&lt;/div&gt;" style="rounded=0;whiteSpace=wrap;html=1;" vertex="1" parent="1">
          <mxGeometry x="680" y="700" width="110" height="30" as="geometry" />
        </mxCell>
        <mxCell id="uECHu8tvX3lNtGS8XR_O-40" value="消息服務MQ" style="rounded=0;whiteSpace=wrap;html=1;" vertex="1" parent="1">
          <mxGeometry x="980" y="700" width="110" height="30" as="geometry" />
        </mxCell>
        <mxCell id="uECHu8tvX3lNtGS8XR_O-41" value="開放儲存服務OSS" style="rounded=0;whiteSpace=wrap;html=1;" vertex="1" parent="1">
          <mxGeometry x="830" y="700" width="110" height="30" as="geometry" />
        </mxCell>
        <mxCell id="uECHu8tvX3lNtGS8XR_O-42" value="開放數據處理服務&lt;div&gt;ODPS&lt;/div&gt;" style="rounded=0;whiteSpace=wrap;html=1;" vertex="1" parent="1">
          <mxGeometry x="1320" y="700" width="110" height="30" as="geometry" />
        </mxCell>
        <mxCell id="uECHu8tvX3lNtGS8XR_O-43" value="開放緩存服務OCS" style="rounded=0;whiteSpace=wrap;html=1;" vertex="1" parent="1">
          <mxGeometry x="1150" y="700" width="110" height="30" as="geometry" />
        </mxCell>
        <mxCell id="uECHu8tvX3lNtGS8XR_O-44" value="分布式文件系統(盤古)" style="rounded=0;whiteSpace=wrap;html=1;" vertex="1" parent="1">
          <mxGeometry x="530" y="740" width="450" height="30" as="geometry" />
        </mxCell>
        <mxCell id="uECHu8tvX3lNtGS8XR_O-45" value="任務調度系統(伏羲)" style="rounded=0;whiteSpace=wrap;html=1;" vertex="1" parent="1">
          <mxGeometry x="990" y="740" width="450" height="30" as="geometry" />
        </mxCell>
        <mxCell id="uECHu8tvX3lNtGS8XR_O-46" value="遠程過程調用(夸父)" style="rounded=0;whiteSpace=wrap;html=1;" vertex="1" parent="1">
          <mxGeometry x="530" y="780" width="200" height="30" as="geometry" />
        </mxCell>
        <mxCell id="uECHu8tvX3lNtGS8XR_O-47" value="安全管理(鍾馗)" style="rounded=0;whiteSpace=wrap;html=1;" vertex="1" parent="1">
          <mxGeometry x="770" y="780" width="200" height="30" as="geometry" />
        </mxCell>
        <mxCell id="uECHu8tvX3lNtGS8XR_O-48" value="資源管理(伏羲)" style="rounded=0;whiteSpace=wrap;html=1;" vertex="1" parent="1">
          <mxGeometry x="1240" y="780" width="200" height="30" as="geometry" />
        </mxCell>
        <mxCell id="uECHu8tvX3lNtGS8XR_O-49" value="分布協同服務(女媧)" style="rounded=0;whiteSpace=wrap;html=1;" vertex="1" parent="1">
          <mxGeometry x="1000" y="780" width="200" height="30" as="geometry" />
        </mxCell>
        <mxCell id="uECHu8tvX3lNtGS8XR_O-50" value="(神農)集群監控" style="text;html=1;align=center;verticalAlign=middle;whiteSpace=wrap;rounded=0;rotation=90;" vertex="1" parent="1">
          <mxGeometry x="1420" y="705" width="110" height="30" as="geometry" />
        </mxCell>
        <mxCell id="uECHu8tvX3lNtGS8XR_O-51" value="(大禹)集群部署" style="text;html=1;align=center;verticalAlign=middle;resizable=0;points=[];autosize=1;strokeColor=none;fillColor=none;rotation=90;" vertex="1" parent="1">
          <mxGeometry x="435" y="710" width="100" height="30" as="geometry" />
        </mxCell>
        <mxCell id="uECHu8tvX3lNtGS8XR_O-52" value="" style="whiteSpace=wrap;html=1;" vertex="1" parent="1">
          <mxGeometry x="1650" y="170" width="200" height="720" as="geometry" />
        </mxCell>
        <mxCell id="uECHu8tvX3lNtGS8XR_O-53" value="&lt;font style=&quot;font-size: 14px;&quot;&gt;監控系統&lt;/font&gt;" style="rounded=0;whiteSpace=wrap;html=1;" vertex="1" parent="1">
          <mxGeometry x="1690" y="245" width="120" height="60" as="geometry" />
        </mxCell>
        <mxCell id="uECHu8tvX3lNtGS8XR_O-54" value="&lt;font style=&quot;font-size: 14px;&quot;&gt;故障處理&lt;/font&gt;" style="rounded=0;whiteSpace=wrap;html=1;" vertex="1" parent="1">
          <mxGeometry x="1690" y="325" width="120" height="60" as="geometry" />
        </mxCell>
        <mxCell id="uECHu8tvX3lNtGS8XR_O-55" value="&lt;font style=&quot;font-size: 14px;&quot;&gt;系統升級&lt;/font&gt;" style="rounded=0;whiteSpace=wrap;html=1;" vertex="1" parent="1">
          <mxGeometry x="1690" y="405" width="120" height="60" as="geometry" />
        </mxCell>
        <mxCell id="uECHu8tvX3lNtGS8XR_O-56" value="&lt;font style=&quot;font-size: 14px;&quot;&gt;應用發布&lt;/font&gt;" style="rounded=0;whiteSpace=wrap;html=1;" vertex="1" parent="1">
          <mxGeometry x="1690" y="485" width="120" height="60" as="geometry" />
        </mxCell>
        <mxCell id="uECHu8tvX3lNtGS8XR_O-57" value="&lt;font style=&quot;font-size: 14px;&quot;&gt;安全防控&lt;/font&gt;" style="rounded=0;whiteSpace=wrap;html=1;" vertex="1" parent="1">
          <mxGeometry x="1690" y="565" width="120" height="60" as="geometry" />
        </mxCell>
        <mxCell id="uECHu8tvX3lNtGS8XR_O-58" value="&lt;font style=&quot;font-size: 14px;&quot;&gt;業務監控&lt;/font&gt;" style="rounded=0;whiteSpace=wrap;html=1;" vertex="1" parent="1">
          <mxGeometry x="1690" y="645" width="120" height="60" as="geometry" />
        </mxCell>
        <mxCell id="uECHu8tvX3lNtGS8XR_O-59" value="&lt;font style=&quot;font-size: 14px;&quot;&gt;運維保障部&lt;/font&gt;" style="rounded=0;whiteSpace=wrap;html=1;" vertex="1" parent="1">
          <mxGeometry x="1690" y="725" width="120" height="60" as="geometry" />
        </mxCell>
        <mxCell id="uECHu8tvX3lNtGS8XR_O-60" value="" style="endArrow=none;dashed=1;html=1;dashPattern=1 3;strokeWidth=2;rounded=0;" edge="1" parent="1">
          <mxGeometry width="50" height="50" relative="1" as="geometry">
            <mxPoint x="300" y="140" as="sourcePoint" />
            <mxPoint x="1860" y="140" as="targetPoint" />
            <Array as="points">
              <mxPoint x="820" y="140" />
            </Array>
          </mxGeometry>
        </mxCell>
        <mxCell id="uECHu8tvX3lNtGS8XR_O-61" value="" style="endArrow=none;dashed=1;html=1;dashPattern=1 3;strokeWidth=2;rounded=0;" edge="1" parent="1">
          <mxGeometry width="50" height="50" relative="1" as="geometry">
            <mxPoint x="320" y="310" as="sourcePoint" />
            <mxPoint x="1630" y="300" as="targetPoint" />
            <Array as="points">
              <mxPoint x="970" y="300" />
            </Array>
          </mxGeometry>
        </mxCell>
        <mxCell id="uECHu8tvX3lNtGS8XR_O-62" value="" style="endArrow=none;dashed=1;html=1;dashPattern=1 3;strokeWidth=2;rounded=0;" edge="1" parent="1">
          <mxGeometry width="50" height="50" relative="1" as="geometry">
            <mxPoint x="350" y="560" as="sourcePoint" />
            <mxPoint x="1630" y="560" as="targetPoint" />
          </mxGeometry>
        </mxCell>
        <mxCell id="uECHu8tvX3lNtGS8XR_O-63" value="&lt;font style=&quot;font-size: 24px;&quot;&gt;業務&lt;/font&gt;&lt;div&gt;&lt;font style=&quot;font-size: 24px;&quot;&gt;前台&lt;/font&gt;&lt;/div&gt;" style="text;html=1;align=center;verticalAlign=middle;whiteSpace=wrap;rounded=0;" vertex="1" parent="1">
          <mxGeometry x="280" y="195" width="90" height="50" as="geometry" />
        </mxCell>
        <mxCell id="uECHu8tvX3lNtGS8XR_O-64" value="&lt;font style=&quot;font-size: 24px;&quot;&gt;業務&lt;/font&gt;&lt;div&gt;&lt;font style=&quot;font-size: 24px;&quot;&gt;中台&lt;/font&gt;&lt;/div&gt;" style="text;html=1;align=center;verticalAlign=middle;whiteSpace=wrap;rounded=0;" vertex="1" parent="1">
          <mxGeometry x="280" y="375" width="90" height="50" as="geometry" />
        </mxCell>
        <mxCell id="uECHu8tvX3lNtGS8XR_O-65" value="&lt;font style=&quot;font-size: 24px;&quot;&gt;業務&lt;/font&gt;&lt;div&gt;&lt;font style=&quot;font-size: 24px;&quot;&gt;後台&lt;/font&gt;&lt;/div&gt;" style="text;html=1;align=center;verticalAlign=middle;whiteSpace=wrap;rounded=0;" vertex="1" parent="1">
          <mxGeometry x="280" y="700" width="90" height="50" as="geometry" />
        </mxCell>
      </root>
    </mxGraphModel>
  </diagram>
</mxfile>
